<svg width="213" height="31" viewBox="0 0 213 31" fill="none" xmlns="http://www.w3.org/2000/svg">
<path d="M0 0H213V3C213 18.464 200.464 31 185 31H28C12.536 31 0 18.464 0 3V0Z" fill="#121515"/>
<path fill-rule="evenodd" clip-rule="evenodd" d="M152 22C156.418 22 160 18.4183 160 14C160 9.58172 156.418 6 152 6C147.582 6 144 9.58172 144 14C144 18.4183 147.582 22 152 22Z" fill="#262C2D"/>
<path fill-rule="evenodd" clip-rule="evenodd" d="M152 19C154.761 19 157 16.7614 157 14C157 11.2386 154.761 9 152 9C149.239 9 147 11.2386 147 14C147 16.7614 149.239 19 152 19Z" fill="#121515"/>
<path opacity="0.4" fill-rule="evenodd" clip-rule="evenodd" d="M152 13C152.552 13 153 12.5523 153 12C153 11.4477 152.552 11 152 11C151.448 11 151 11.4477 151 12C151 12.5523 151.448 13 152 13Z" fill="#636F73"/>
<path fill-rule="evenodd" clip-rule="evenodd" d="M81 14C81 12.3431 82.3431 11 84 11H129C130.657 11 132 12.3431 132 14V14C132 15.6569 130.657 17 129 17H84C82.3431 17 81 15.6569 81 14V14Z" fill="#262C2D"/>
</svg>
